<svg width="180" height="180" viewBox="0 0 180 180" fill="none" xmlns="http://www.w3.org/2000/svg">
  <!-- 배경 원 -->
  <circle cx="90" cy="90" r="90" fill="#3B82F6"/>
  
  <!-- 중앙 흰색 원 -->
  <circle cx="90" cy="90" r="63" fill="white"/>
  
  <!-- 진짜 불꽃 로고 -->
  <g transform="translate(90, 90)">
    <!-- 불꽃 바닥 (가장 큰 부분) -->
    <path d="M-42 63 L-21 42 L21 42 L42 63 L31.5 73.5 L-31.5 73.5 Z" fill="#DC2626"/>
    
    <!-- 불꽃 중간 -->
    <path d="M-31.5 42 L-15.75 21 L15.75 21 L31.5 42 L23.625 52.5 L-23.625 52.5 Z" fill="#EF4444"/>
    
    <!-- 불꽃 상단 -->
    <path d="M-21 21 L-10.5 0 L10.5 0 L21 21 L15.75 31.5 L-15.75 31.5 Z" fill="#F87171"/>
    
    <!-- 불꽃 끝 -->
    <path d="M-10.5 0 L-5.25 -10.5 L5.25 -10.5 L10.5 0 L7.875 10.5 L-7.875 10.5 Z" fill="#FCA5A5"/>
    
    <!-- 불꽃 내부 하이라이트 -->
    <path d="M-31.5 42 L-15.75 21 L15.75 21 L31.5 42 L23.625 52.5 L-23.625 52.5 Z" fill="#FEE2E2" opacity="0.3"/>
    <path d="M-21 21 L-10.5 0 L10.5 0 L21 21 L15.75 31.5 L-15.75 31.5 Z" fill="#FEE2E2" opacity="0.4"/>
  </g>
</svg> 