<svg width="32" height="32" viewBox="0 0 32 32" fill="none" xmlns="http://www.w3.org/2000/svg">
  <!-- 배경 원 -->
  <circle cx="16" cy="16" r="16" fill="#3B82F6"/>
  
  <!-- 중앙 흰색 원 -->
  <circle cx="16" cy="16" r="11" fill="white"/>
  
  <!-- 진짜 불꽃 로고 -->
  <g transform="translate(16, 16)">
    <!-- 불꽃 바닥 (가장 큰 부분) -->
    <path d="M-7.5 11.25 L-3.75 7.5 L3.75 7.5 L7.5 11.25 L5.625 13.125 L-5.625 13.125 Z" fill="#DC2626"/>
    
    <!-- 불꽃 중간 -->
    <path d="M-5.625 7.5 L-2.8125 3.75 L2.8125 3.75 L5.625 7.5 L4.21875 9.375 L-4.21875 9.375 Z" fill="#EF4444"/>
    
    <!-- 불꽃 상단 -->
    <path d="M-3.75 3.75 L-1.875 0 L1.875 0 L3.75 3.75 L2.8125 5.625 L-2.8125 5.625 Z" fill="#F87171"/>
    
    <!-- 불꽃 끝 -->
    <path d="M-1.875 0 L-0.9375 -1.875 L0.9375 -1.875 L1.875 0 L1.40625 1.875 L-1.40625 1.875 Z" fill="#FCA5A5"/>
    
    <!-- 불꽃 내부 하이라이트 -->
    <path d="M-5.625 7.5 L-2.8125 3.75 L2.8125 3.75 L5.625 7.5 L4.21875 9.375 L-4.21875 9.375 Z" fill="#FEE2E2" opacity="0.3"/>
    <path d="M-3.75 3.75 L-1.875 0 L1.875 0 L3.75 3.75 L2.8125 5.625 L-2.8125 5.625 Z" fill="#FEE2E2" opacity="0.4"/>
  </g>
</svg> 